<svg width="24" height="24" viewBox="0 0 24 24" fill="none" xmlns="http://www.w3.org/2000/svg">
<path d="M10.2551 20.7054C10.1527 20.3969 10.3823 20.076 10.6956 20.076H13.3048C13.618 20.076 13.8476 20.3969 13.7452 20.7054C13.6195 21.0835 13.3839 21.4113 13.0712 21.6433C12.7584 21.8753 12.3841 22 12.0002 22C11.6163 22 11.2419 21.8753 10.9292 21.6433C10.6164 21.4113 10.3808 21.0835 10.2551 20.7054ZM20.2904 16.5797L19.3014 16.0643C19.1138 15.9665 18.952 15.8223 18.8302 15.6442C18.7085 15.4662 18.6304 15.2597 18.6029 15.043L17.7415 8.24563C17.5576 6.7943 16.8739 5.46208 15.8177 4.49707C14.7614 3.53205 13.4046 3 12 3C10.5954 3 9.23859 3.53205 8.18234 4.49707C7.12609 5.46208 6.44236 6.7943 6.25847 8.24563L5.39706 15.043C5.36959 15.2597 5.29155 15.4662 5.16978 15.6442C5.04801 15.8223 4.88622 15.9665 4.69857 16.0643L3.70958 16.5797C3.45092 16.7145 3.24351 16.9363 3.12096 17.2093C2.99841 17.4823 2.9679 17.7904 3.03438 18.0837C3.10085 18.3771 3.26042 18.6384 3.48722 18.8254C3.71403 19.0124 3.99477 19.1141 4.28395 19.114H19.7164C20.0055 19.114 20.2862 19.0122 20.513 18.8252C20.7397 18.6382 20.8992 18.3769 20.9657 18.0836C21.0321 17.7903 21.0016 17.4822 20.879 17.2092C20.7565 16.9363 20.5491 16.7144 20.2904 16.5797Z"/>
</svg>
