<svg viewBox="0 0 24 24" fill="none" xmlns="http://www.w3.org/2000/svg">
<path d="M18.5 5H8C7.86739 5 7.74021 5.05268 7.64645 5.14645C7.55268 5.24021 7.5 5.36739 7.5 5.5V8H5.5C5.36739 8 5.24021 8.05268 5.14645 8.14645C5.05268 8.24021 5 8.36739 5 8.5V18.5C5 18.6326 5.05268 18.7598 5.14645 18.8536C5.24021 18.9473 5.36739 19 5.5 19H15.5C15.6326 19 15.7598 18.9473 15.8536 18.8536C15.9473 18.7598 16 18.6326 16 18.5V16.5H18.5C18.6326 16.5 18.7598 16.4473 18.8536 16.3536C18.9473 16.2598 19 16.1326 19 16V5.5C19 5.36739 18.9473 5.24021 18.8536 5.14645C18.7598 5.05268 18.6326 5 18.5 5V5ZM15 18H6V9H7.5V16C7.5 16.1326 7.55268 16.2598 7.64645 16.3536C7.74021 16.4473 7.86739 16.5 8 16.5H15V18ZM18 15.5H8.5V6H18V15.5Z" />
</svg>
