<svg  viewBox="0 0 24 24" fill="none" xmlns="http://www.w3.org/2000/svg">
<path d="M19.4286 4H7.42857C7.27702 4 7.13167 4.0602 7.02451 4.16737C6.91735 4.27453 6.85714 4.41988 6.85714 4.57143V7.42857H4.57143C4.41988 7.42857 4.27453 7.48878 4.16737 7.59594C4.0602 7.7031 4 7.84845 4 8V19.4286C4 19.5801 4.0602 19.7255 4.16737 19.8326C4.27453 19.9398 4.41988 20 4.57143 20H16C16.1516 20 16.2969 19.9398 16.4041 19.8326C16.5112 19.7255 16.5714 19.5801 16.5714 19.4286V17.1429H19.4286C19.5801 17.1429 19.7255 17.0827 19.8326 16.9755C19.9398 16.8683 20 16.723 20 16.5714V4.57143C20 4.41988 19.9398 4.27453 19.8326 4.16737C19.7255 4.0602 19.5801 4 19.4286 4V4ZM15.4286 18.8571H5.14286V8.57143H6.85714V16.5714C6.85714 16.723 6.91735 16.8683 7.02451 16.9755C7.13167 17.0827 7.27702 17.1429 7.42857 17.1429H15.4286V18.8571ZM18.8571 16H8V5.14286H18.8571V16Z" />
</svg>
