<svg width="24" height="24" viewBox="0 0 24 24" fill="none" xmlns="http://www.w3.org/2000/svg">
<path d="M18.6957 5.21739C19.0558 5.21739 19.3478 5.50938 19.3478 5.86957C19.3478 6.22975 19.0558 6.52174 18.6957 6.52174H18.6865C18.6144 6.52174 18.5539 6.57885 18.5512 6.65268L18.0816 19.3304C18.0473 20.256 17.2737 21 16.3478 21H8.00001C7.07367 21 6.30045 20.2546 6.26622 19.3304L5.79667 6.65268C5.79399 6.58036 5.73502 6.52174 5.66134 6.52174H5.65217C5.29199 6.52174 5 6.22975 5 5.86957C5 5.50938 5.29199 5.21739 5.65217 5.21739H8.83175C8.9034 5.21739 8.97777 5.16039 8.99705 5.09292L9.2097 4.34861C9.42787 3.58504 10.2036 3 10.9978 3H13.35C14.1443 3 14.9199 3.58483 15.1381 4.34861L15.3508 5.09292C15.3704 5.16166 15.4438 5.21739 15.5161 5.21739H18.6957ZM11.6522 8.86957V17.7391C11.6522 18.0273 11.8858 18.2609 12.1739 18.2609C12.4621 18.2609 12.6957 18.0273 12.6957 17.7391V8.86957C12.6957 8.58142 12.4621 8.34783 12.1739 8.34783C11.8858 8.34783 11.6522 8.58142 11.6522 8.86957ZM8.78283 8.8849L9.0437 17.7545C9.05218 18.0425 9.29253 18.2691 9.58056 18.2606C9.86858 18.2522 10.0952 18.0118 10.0867 17.7238L9.82586 8.85423C9.81739 8.5662 9.57703 8.33958 9.28901 8.34805C9.00098 8.35652 8.77436 8.59688 8.78283 8.8849ZM14.522 8.85423L14.2611 17.7238C14.2526 18.0118 14.4792 18.2522 14.7673 18.2606C15.0553 18.2691 15.2957 18.0425 15.3041 17.7545L15.565 8.8849C15.5735 8.59688 15.3468 8.35652 15.0588 8.34805C14.7708 8.33958 14.5304 8.5662 14.522 8.85423ZM10.4501 5.21739H13.8977C13.9715 5.21739 14.014 5.16207 13.9945 5.09383L13.884 4.70694C13.8257 4.5032 13.562 4.30435 13.35 4.30435H10.9978C10.7859 4.30435 10.522 4.50337 10.4639 4.70694L10.3533 5.09383C10.3336 5.16276 10.3772 5.21739 10.4501 5.21739Z" />
</svg>
