<svg viewBox="0 0 24 24" fill="none" xmlns="http://www.w3.org/2000/svg">
<path d="M18.2708 4.98669C18.5935 4.98669 18.8551 5.2483 18.8551 5.57101C18.8551 5.89373 18.5935 6.15534 18.2708 6.15534H18.2625C18.198 6.15534 18.1437 6.2065 18.1413 6.27266L17.7206 17.6314C17.6899 18.4607 16.9967 19.1273 16.1672 19.1273H8.68789C7.85793 19.1273 7.16515 18.4594 7.13448 17.6314L6.71379 6.27266C6.71139 6.20786 6.65855 6.15534 6.59253 6.15534H6.58432C6.26161 6.15534 6 5.89373 6 5.57101C6 5.2483 6.26161 4.98669 6.58432 4.98669H9.43309C9.49729 4.98669 9.56392 4.93562 9.58119 4.87517L9.77172 4.2083C9.96719 3.52417 10.6622 3 11.3738 3H13.4813C14.1929 3 14.8878 3.52398 15.0833 4.2083L15.2739 4.87517C15.2915 4.93676 15.3572 4.98669 15.422 4.98669H18.2708ZM11.9601 8.25889V16.2057C11.9601 16.4638 12.1694 16.6731 12.4275 16.6731C12.6857 16.6731 12.895 16.4638 12.895 16.2057V8.25889C12.895 8.00072 12.6857 7.79144 12.4275 7.79144C12.1694 7.79144 11.9601 8.00072 11.9601 8.25889ZM9.38927 8.27264L9.623 16.2194C9.63059 16.4775 9.84594 16.6805 10.104 16.6729C10.3621 16.6653 10.5651 16.45 10.5575 16.1919L10.3238 8.24515C10.3162 7.98709 10.1008 7.78405 9.84278 7.79164C9.58472 7.79923 9.38168 8.01458 9.38927 8.27264ZM14.5313 8.24515L14.2976 16.1919C14.29 16.45 14.493 16.6653 14.7511 16.6729C15.0091 16.6805 15.2245 16.4775 15.2321 16.2194L15.4658 8.27264C15.4734 8.01458 15.2704 7.79923 15.0123 7.79164C14.7542 7.78405 14.5389 7.98709 14.5313 8.24515ZM10.8831 4.98669H13.972C14.0381 4.98669 14.0762 4.93713 14.0587 4.87598L13.9597 4.52935C13.9075 4.3468 13.6712 4.16864 13.4813 4.16864H11.3738C11.184 4.16864 10.9475 4.34696 10.8954 4.52935L10.7964 4.87598C10.7787 4.93775 10.8177 4.98669 10.8831 4.98669Z" />
</svg>
