<svg  viewBox="0 0 24 24" fill="none" xmlns="http://www.w3.org/2000/svg">
<path d="M15.0624 17.9961H6.4288V9.36246H12.0224L13.4664 7.91846H5.7144C5.3192 7.91846 5 8.23766 5 8.63286V18.7105C5 19.1057 5.3192 19.4249 5.7144 19.4249H15.792C16.1872 19.4249 16.5064 19.1057 16.5064 18.7105V10.9585L15.0624 12.4025V17.9961Z" />
<path d="M18.7103 5H14.6519C14.2567 5 13.9375 5.3192 13.9375 5.7144C13.9375 6.1096 14.2567 6.4288 14.6519 6.4288H16.9623L10.2439 13.1624C9.95514 13.4512 9.95514 13.892 10.2439 14.1808C10.3807 14.3176 10.5631 14.3936 10.7455 14.3936C10.9279 14.3936 11.1103 14.3176 11.2471 14.1808L17.9807 7.4624V9.7728C17.9807 10.168 18.2999 10.4872 18.6951 10.4872C19.0903 10.4872 19.4095 10.168 19.4095 9.7728V5.7144C19.4247 5.3192 19.1055 5 18.7103 5Z" />
</svg>
