<svg width="24" height="24" viewBox="0 0 24 24" fill="none" xmlns="http://www.w3.org/2000/svg">
<path d="M20.7744 9.96804C20.7512 9.90908 20.7203 9.85343 20.6825 9.80254C20.5227 9.59786 20.3163 9.43416 20.0806 9.32498C19.8448 9.2158 19.5865 9.16428 19.3268 9.17468H19.235C19.0866 9.17085 18.9418 9.1279 18.8153 9.05019C18.6889 8.97247 18.5852 8.86275 18.5148 8.73212C18.5115 8.73239 18.5081 8.73193 18.5049 8.73076C18.5017 8.72959 18.4988 8.72774 18.4964 8.72535C18.494 8.72295 18.4922 8.72006 18.491 8.71688C18.4898 8.71371 18.4894 8.71031 18.4896 8.70693C18.3942 8.54142 18.3096 8.4047 18.2124 8.23919C18.2074 8.23803 18.203 8.23529 18.1998 8.2314C18.1965 8.22751 18.1946 8.22266 18.1944 8.2176C18.1153 8.0883 18.0714 7.94063 18.067 7.78918C18.0626 7.63774 18.0978 7.48776 18.1692 7.35407C18.1809 7.34594 18.191 7.33555 18.1987 7.32351C18.2064 7.31146 18.2117 7.298 18.2142 7.28391C18.3498 7.05375 18.4325 6.7963 18.4561 6.53025C18.4798 6.26419 18.4439 5.99621 18.351 5.74575C18.3334 5.68431 18.302 5.6277 18.2592 5.58024C17.9526 5.29065 17.6305 5.01799 17.2941 4.76349C17.2491 4.7419 17.1987 4.71851 17.1321 4.69333C16.8726 4.64006 16.6042 4.64827 16.3485 4.71732C16.0927 4.78636 15.8567 4.91431 15.6594 5.09091C15.6329 5.09835 15.6095 5.11412 15.5927 5.13588C15.4519 5.25583 15.2718 5.31986 15.0868 5.31579C14.9752 5.3138 14.8651 5.28996 14.7628 5.24562C14.5917 5.17253 14.4153 5.1124 14.2352 5.06572C14.0937 5.01537 13.9682 4.92838 13.8714 4.81364C13.7746 4.6989 13.71 4.56053 13.6843 4.41268C13.6792 4.38129 13.6707 4.35054 13.6591 4.32093C13.6258 4.05603 13.5289 3.80311 13.3765 3.58381C13.2241 3.3645 13.0209 3.18533 12.7841 3.06162C12.7353 3.03357 12.6801 3.01869 12.6238 3.01844C12.2107 2.99385 11.7965 2.99385 11.3834 3.01844C11.3271 3.02354 11.2722 3.03877 11.2213 3.06342C10.9848 3.19297 10.7823 3.37652 10.6302 3.59911C10.4782 3.8217 10.3809 4.07704 10.3463 4.34432C10.3368 4.35314 10.3295 4.36412 10.3251 4.37633C10.3208 4.38854 10.3194 4.40162 10.3211 4.41448C10.2981 4.56339 10.2346 4.7031 10.1374 4.81829C10.0402 4.93349 9.91317 5.01972 9.77018 5.06752C9.61174 5.1125 9.42629 5.18266 9.24265 5.24742C9.13633 5.27282 9.0278 5.28788 8.91858 5.2924C8.73455 5.29066 8.55641 5.22731 8.41266 5.1125C8.39105 5.08731 8.36765 5.08731 8.34604 5.06392C8.14923 4.88646 7.91325 4.75795 7.65733 4.68886C7.4014 4.61978 7.13277 4.61206 6.87329 4.66634C6.81223 4.66788 6.75414 4.69303 6.71126 4.7365C6.36292 4.97569 6.03907 5.24867 5.74443 5.55146C5.70585 5.60182 5.67492 5.65759 5.65261 5.71697C5.55509 5.96652 5.51671 6.23524 5.54044 6.50209C5.56418 6.76893 5.6494 7.02667 5.78944 7.25513C5.80645 7.27717 5.82151 7.30064 5.83445 7.32529C5.90545 7.45908 5.94046 7.60901 5.93604 7.76038C5.93162 7.91175 5.88793 8.05939 5.80924 8.18882C5.80587 8.18855 5.80247 8.18901 5.79929 8.19018C5.7961 8.19135 5.79322 8.1932 5.79082 8.19559C5.78842 8.19799 5.78657 8.20087 5.7854 8.20405C5.78423 8.20723 5.78377 8.21063 5.78404 8.214C5.68513 8.36331 5.59728 8.51964 5.52118 8.68175C5.5178 8.68148 5.5144 8.68194 5.51122 8.68311C5.50804 8.68428 5.50515 8.68613 5.50275 8.68852C5.50035 8.69092 5.49851 8.6938 5.49734 8.69698C5.49616 8.70016 5.4957 8.70356 5.49597 8.70693C5.42967 8.84086 5.32694 8.95341 5.19957 9.03168C5.0722 9.10996 4.92533 9.15079 4.7758 9.14949H4.68218C4.42272 9.14281 4.16525 9.19636 3.93001 9.30593C3.69477 9.4155 3.48817 9.5781 3.32646 9.78095C3.28363 9.8284 3.25222 9.88501 3.23464 9.94646C3.12468 10.3755 3.04645 10.812 3.00058 11.2525C2.99759 11.3136 3.00614 11.3746 3.02579 11.4324C3.11005 11.6769 3.24882 11.8989 3.4316 12.0819C3.61437 12.2648 3.83638 12.4039 4.08084 12.4885C4.11213 12.4941 4.14285 12.5026 4.17266 12.5137C4.3129 12.5623 4.43667 12.6493 4.52991 12.7648C4.62316 12.8802 4.68215 13.0195 4.70018 13.1667V13.1919C4.71818 13.3737 4.74887 13.554 4.792 13.7316V13.7568C4.81764 13.9049 4.8057 14.0572 4.75726 14.1995C4.70882 14.3419 4.62544 14.4699 4.51474 14.5717C4.48827 14.5792 4.46491 14.5949 4.44812 14.6167C4.24907 14.7773 4.08817 14.9799 3.97702 15.2102C3.86586 15.4404 3.80724 15.6924 3.80537 15.948C3.81097 16.0099 3.82615 16.0706 3.85038 16.1279C4.05292 16.54 4.28331 16.9379 4.53995 17.3188C4.55042 17.3517 4.56863 17.3817 4.59307 17.4061C4.61751 17.4305 4.64745 17.4487 4.68038 17.4592C4.8982 17.5814 5.14076 17.6532 5.39008 17.669C5.63941 17.6849 5.88912 17.6445 6.12072 17.5509C6.13693 17.5541 6.15367 17.5535 6.16961 17.5492C6.18555 17.5448 6.20025 17.5368 6.21254 17.5257C6.30173 17.4951 6.3955 17.4799 6.4898 17.4807C6.59056 17.4804 6.69056 17.498 6.78507 17.5329C6.88497 17.5714 6.97846 17.6248 7.06234 17.6912L7.47644 18.051L7.50164 18.0762C7.61536 18.171 7.70265 18.2935 7.75501 18.4318C7.80738 18.5702 7.82305 18.7198 7.80051 18.866C7.7833 18.8934 7.77454 18.9253 7.77531 18.9577C7.72396 19.204 7.72633 19.4584 7.78225 19.7037C7.83817 19.9489 7.94634 20.1792 8.09938 20.379C8.14421 20.4288 8.19955 20.4682 8.26142 20.4941C8.68137 20.7018 9.12186 20.8652 9.57573 20.9816C9.64257 21.0061 9.71594 21.0061 9.78278 20.9816C10.0264 20.9318 10.2558 20.8285 10.4545 20.6791C10.6531 20.5298 10.8161 20.3381 10.9314 20.1181C10.9485 20.0961 10.9635 20.0726 10.9765 20.0479C11.0438 19.9128 11.1501 19.8008 11.2817 19.7264C11.4132 19.6521 11.564 19.6187 11.7146 19.6306H12.2908C12.4401 19.6268 12.5877 19.6636 12.7177 19.7372C12.8477 19.8107 12.9553 19.9181 13.0289 20.0479C13.046 20.07 13.061 20.0935 13.074 20.1181C13.1891 20.3383 13.352 20.5301 13.5507 20.6795C13.7494 20.8288 13.979 20.9321 14.2226 20.9816H14.3144C14.3397 20.9816 14.3811 20.9816 14.3523 20.9331C14.798 20.7941 15.2356 20.6301 15.663 20.4419C15.7253 20.4169 15.7809 20.3774 15.825 20.3268C16.0716 20.0339 16.2051 19.6625 16.2013 19.2798C16.201 19.1698 16.1902 19.0602 16.1689 18.9523C16.1722 18.9042 16.1636 18.856 16.1437 18.812C16.1252 18.6668 16.1455 18.5193 16.2024 18.3844C16.2593 18.2495 16.3508 18.132 16.4678 18.0438C16.463 18.0391 16.4603 18.0326 16.4603 18.0258C16.4603 18.0191 16.463 18.0126 16.4678 18.0079C16.4725 18.0031 16.479 18.0004 16.4858 18.0004C16.4925 18.0004 16.499 18.0031 16.5038 18.0079C16.6516 17.8997 16.7901 17.7793 16.9179 17.6481H16.9431C17.0936 17.5111 17.2904 17.4359 17.494 17.4376C17.5614 17.437 17.6286 17.4455 17.6938 17.4628C17.7205 17.4682 17.7465 17.4766 17.7713 17.4879C17.8025 17.4936 17.8333 17.502 17.8631 17.5131C17.9614 17.5496 18.0626 17.5779 18.1656 17.5977C18.2711 17.6189 18.3784 17.6298 18.486 17.6301C18.7762 17.6326 19.0622 17.5601 19.316 17.4196L19.4565 17.2793C19.7266 16.907 19.9577 16.5079 20.146 16.0883C20.1744 16.0325 20.1898 15.971 20.191 15.9084C20.1865 15.6533 20.1266 15.4022 20.0157 15.1724C19.9047 14.9426 19.7453 14.7395 19.5483 14.5771C19.5267 14.5555 19.5033 14.5322 19.4817 14.507C19.3779 14.4206 19.2979 14.3091 19.2494 14.1832C19.2009 14.0572 19.1854 13.921 19.2044 13.7874V13.7604C19.2472 13.5828 19.2779 13.4024 19.2962 13.2207V13.2009C19.3844 12.6684 19.7787 12.5352 19.8255 12.5352C19.8434 12.5388 19.862 12.5377 19.8793 12.532C19.8966 12.5263 19.9122 12.5163 19.9246 12.5029C20.1677 12.4197 20.3887 12.2821 20.5706 12.1006C20.7525 11.9192 20.8905 11.6987 20.9742 11.4558C20.9939 11.398 21.0024 11.3369 20.9994 11.2759C20.9603 10.8346 20.885 10.3971 20.7744 9.96804V9.96804ZM12.0027 15.7933C11.2708 15.7993 10.5536 15.5881 9.94202 15.1865C9.3304 14.7848 8.85188 14.2108 8.56711 13.5371C8.28234 12.8634 8.20413 12.1204 8.34241 11.4022C8.48068 10.6841 8.8292 10.0231 9.34381 9.5031C9.85842 8.98308 10.516 8.62743 11.2331 8.4812C11.9502 8.33498 12.6946 8.40477 13.372 8.68174C14.0493 8.9587 14.6292 9.43037 15.038 10.037C15.4468 10.6436 15.6662 11.3578 15.6684 12.0891C15.6729 12.5733 15.5814 13.0536 15.3993 13.5024C15.2172 13.9511 14.9481 14.3594 14.6073 14.7037C14.2666 15.0481 13.861 15.3216 13.414 15.5086C12.967 15.6956 12.4873 15.7923 12.0027 15.7933V15.7933Z" />
</svg>
