<svg width="24" height="24" viewBox="0 0 24 24" fill="none" xmlns="http://www.w3.org/2000/svg">
<path d="M20.8458 18.1827L12.9786 4.56335C12.5437 3.81222 11.4566 3.81222 11.0217 4.56335L3.15452 18.1827C2.71965 18.9338 3.25335 19.8826 4.12309 19.8826H19.8574C20.7469 19.8826 21.2806 18.9338 20.8458 18.1827ZM11.7531 8.73414C12.2275 8.61554 12.7019 8.85274 12.9193 9.28761C12.9984 9.44574 13.0181 9.62365 12.9984 9.78178C12.9588 10.2759 12.9391 10.7701 12.9193 11.2841C12.8798 12.055 12.8205 12.8456 12.7809 13.6165C12.7612 13.8537 12.7612 14.0909 12.7414 14.3479C12.7216 14.763 12.4054 15.0793 11.9903 15.0793C11.5949 15.0793 11.2589 14.763 11.2391 14.3677C11.1798 13.1619 11.1008 11.9561 11.0415 10.7503C11.0217 10.4341 11.0019 10.098 10.9822 9.78178C10.9822 9.30738 11.2984 8.85274 11.7531 8.73414ZM12.01 17.7873C11.4566 17.7873 11.0217 17.3327 11.0217 16.7792C11.0217 16.2257 11.4763 15.7711 12.0298 15.7711C12.5833 15.7711 13.0181 16.2257 13.0181 16.799C12.9984 17.3327 12.5437 17.7873 12.01 17.7873Z"/>
</svg>
