<svg width="971" height="971" viewBox="0 0 971 971" fill="none" xmlns="http://www.w3.org/2000/svg">
<circle cx="485.5" cy="485.5" r="461.5" fill="#343A40" stroke="#1C2541" stroke-width="48"/>
<path d="M449.302 591.554H510.18C510.18 583.004 510.4 575.44 510.838 568.863C511.277 562.067 512.374 555.709 514.129 549.79C515.884 543.871 518.517 538.061 522.027 532.361C525.756 526.661 530.912 520.632 537.493 514.274C547.804 505.067 558.224 495.091 568.755 484.349C579.504 473.607 589.157 461.987 597.713 449.491C606.269 437.214 613.289 424.169 618.773 410.358C624.258 396.327 627 381.419 627 365.634C627 345.903 623.819 328.364 617.457 313.018C611.095 297.672 601.881 284.627 589.815 273.885C577.749 263.143 562.941 255.031 545.391 249.55C528.06 243.85 508.315 241 486.158 241C466.195 241 447.547 243.74 430.216 249.221C413.105 254.483 398.297 262.156 385.792 272.241C373.068 282.545 362.976 295.041 355.517 309.73C348.059 324.418 344.219 340.97 344 359.386H404.878C404.878 347.986 407.181 338.23 411.788 330.118C416.395 321.787 422.538 314.882 430.216 309.401C437.675 304.139 446.231 300.303 455.884 297.891C465.756 295.26 475.847 293.945 486.158 293.945C499.54 293.945 511.387 295.699 521.698 299.206C532.009 302.714 540.564 307.866 547.365 314.662C553.508 320.801 558.115 328.364 561.186 337.353C564.477 346.122 566.122 356.207 566.122 367.607C566.122 378.569 564.038 388.983 559.87 398.848C555.702 408.714 550.436 418.031 544.074 426.8C537.493 435.789 530.253 444.339 522.356 452.451C514.678 460.562 507.109 468.455 499.65 476.128C488.681 486.213 479.906 494.982 473.324 502.436C466.743 509.67 461.697 517.234 458.187 525.126C454.677 533.238 452.374 542.446 451.277 552.75C450.18 562.835 449.522 575.769 449.302 591.554ZM442.392 694.484C442.392 704.569 445.463 713.009 451.606 719.806C457.968 726.602 467.401 730 479.906 730C492.41 730 501.844 726.602 508.206 719.806C514.787 713.009 518.078 704.569 518.078 694.484C518.078 683.961 514.787 675.192 508.206 668.176C501.844 661.161 492.41 657.653 479.906 657.653C467.401 657.653 457.968 661.161 451.606 668.176C445.463 675.192 442.392 683.961 442.392 694.484Z" fill="#0B132B"/>
</svg>
