<svg width="1957" height="1957" viewBox="0 0 1957 1957" fill="none" xmlns="http://www.w3.org/2000/svg">
<path d="M989.919 1917.37L102.025 1404.73L989.919 40.1287L1844 1404.73L989.919 1917.37Z" fill="#343A40"/>
<path d="M981.462 682.167C1407.69 682.167 1753.21 1070.02 1753.21 1070.02C1753.21 1070.02 1407.69 1457.87 981.463 1457.87C555.237 1457.87 209.713 1070.02 209.713 1070.02C209.713 1070.02 555.237 682.167 981.462 682.167Z" fill="#F8F9FA"/>
<path fill-rule="evenodd" clip-rule="evenodd" d="M1132.73 972.167C1099.08 915.612 1037.61 881.039 967.332 881.039C860.943 881.039 777.99 962.872 777.99 1069.91C777.99 1176.95 860.943 1267.02 967.332 1267.02C1037.61 1267.02 1099.08 1225.86 1132.73 1169.31H1229.16C1189.31 1274.85 1086.21 1349.87 967.332 1349.87C813.658 1349.87 685.787 1224.53 685.787 1069.91C685.787 915.297 813.658 789.957 967.332 789.957C1086.21 789.957 1189.31 866.623 1229.16 972.167H1132.73V972.167ZM1276.92 1036.98L1179.77 1106.14H1057.89C1043.69 1142.75 1008.16 1168.72 966.535 1168.72C912.426 1168.72 868.562 1124.85 868.562 1070.74C868.562 1016.62 912.426 972.752 966.535 972.752C1008.78 972.752 1044.78 999.495 1058.54 1036.98H1276.92Z" fill="#343A40"/>
</svg>
