<svg width="373" height="111" viewBox="0 0 373 111" fill="none" xmlns="http://www.w3.org/2000/svg">
<path d="M36.78 110V61.796L0.119995 0.799988H17.592L44.424 47.288H44.736L71.724 0.799988H89.196L52.38 61.952V110H36.78Z" fill="#6FFFE9"/>
<path d="M188.307 100.328L170.211 110.78H124.503L106.407 100.328V10.472L124.503 0.019989H170.211L188.307 10.472V100.328ZM122.007 14.06V96.74H172.707V14.06H122.007Z" fill="#6FFFE9"/>
<path d="M216.399 110V0.799988H231.999V95.96H272.403V110H216.399Z" fill="#6FFFE9"/>
<path d="M372.948 100.328L354.852 110.78H309.144L291.048 100.328V10.472L309.144 0.019989H354.852L372.948 10.472V100.328ZM306.648 14.06V96.74H357.348V14.06H306.648Z" fill="#6FFFE9"/>
</svg>
