<svg width="1036" height="1036" viewBox="0 0 1036 1036" fill="none" xmlns="http://www.w3.org/2000/svg">
<circle cx="518" cy="518" r="518" fill="#1C2541"/>
<path fill-rule="evenodd" clip-rule="evenodd" d="M384.575 793.749L515.428 670.381C516.97 668.928 519.379 668.929 520.919 670.384L651.506 793.749L657.687 799.135C658.331 799.696 658.778 800.448 658.964 801.281L675.129 873.869C675.537 875.699 677.16 877 679.034 877H733.011C735.571 877 737.472 874.629 736.916 872.13L635.102 414.959C634.546 412.46 636.447 410.089 639.006 410.089H690.163C692.372 410.089 694.163 408.298 694.163 406.089V242.472C694.163 240.91 693.254 239.491 691.836 238.838L520.124 159.77C519.062 159.281 517.839 159.282 516.777 159.771L345.163 238.838C343.745 239.491 342.837 240.91 342.837 242.471V406.089C342.837 408.298 344.628 410.089 346.837 410.089H397.994C400.554 410.089 402.455 412.46 401.898 414.959L300.085 872.13C299.528 874.629 301.429 877 303.989 877H357.967C359.841 877 361.464 875.699 361.871 873.869L378.258 800.288C378.443 799.454 378.891 798.702 379.534 798.141L384.575 793.749ZM410.138 690.821C407.276 693.546 402.616 690.912 403.475 687.054L425.425 588.493C426.1 585.463 429.82 584.323 432.076 586.455L473.011 625.125C474.677 626.699 474.682 629.349 473.023 630.93L410.138 690.821ZM520.933 585.299C519.388 586.772 516.958 586.771 515.414 585.297L443.414 516.617C442.4 515.649 441.966 514.221 442.27 512.853L464.459 413.22C464.867 411.39 466.489 410.089 468.364 410.089H568.637C570.511 410.089 572.134 411.39 572.541 413.22L594.636 512.431C594.941 513.8 594.506 515.229 593.49 516.197L520.933 585.299ZM563.35 625.202C561.682 626.774 561.674 629.424 563.333 631.006L627.082 691.817C629.943 694.546 634.607 691.912 633.747 688.053L611.492 588.122C610.818 585.093 607.102 583.952 604.844 586.081L563.35 625.202ZM594 270C594 267.791 592.209 266 590 266H448C445.791 266 444 267.791 444 270V342C444 344.209 445.791 346 448 346H590C592.209 346 594 344.209 594 342V270Z" fill="#6FFFE9"/>
</svg>
